<svg width="24" height="24" viewBox="0 0 24 24" fill="none" xmlns="http://www.w3.org/2000/svg">
<path d="M15.5 6.5C15.5 3.7385 13.26 1.5 10.5 1.5C7.74 1.5 5.5 3.7385 5.5 6.5C5.5 9.2615 7.74 11.5 10.5 11.5C13.26 11.5 15.5 9.2615 15.5 6.5ZM10.5 9.5C8.845 9.5 7.5 8.157 7.5 6.5C7.5 4.843 8.845 3.5 10.5 3.5C12.155 3.5 13.5 4.843 13.5 6.5C13.5 8.157 12.155 9.5 10.5 9.5Z" fill="#2B2F36"/>
<path d="M4 19C4 18.6545 4.045 18.3195 4.125 18C4.57 16.275 6.135 15 8 15H12.525V13H8C4.685 13 2 15.6865 2 19V20C2 21.1 2.9 22 4 22H12.5V20H4V19Z" fill="#2B2F36"/>
<path d="M16.818 21C16.818 20.4477 17.2657 20 17.818 20C18.3703 20 18.818 20.4477 18.818 21C18.818 21.5523 18.3703 22 17.818 22C17.2657 22 16.818 21.5523 16.818 21Z" fill="#2B2F36"/>
<path d="M16.4779 13.5759C16.8825 13.1353 17.2437 12.7422 18.002 12.7422C19.1828 12.7422 19.5 13.5003 19.5 13.8213C19.5 14.1704 19.4565 14.3519 19.3781 14.4981C19.2959 14.6516 19.1163 14.8735 18.652 15.18C18.1129 15.5358 17.6659 15.9289 17.3517 16.4345C17.0315 16.9496 16.9007 17.4979 16.8572 18.0755C16.8157 18.6262 17.2285 19.1063 17.7792 19.1478C18.33 19.1893 18.81 18.7765 18.8515 18.2258C18.8792 17.8592 18.9502 17.6512 19.0503 17.4903C19.1562 17.3198 19.3479 17.117 19.7537 16.8492C20.3777 16.4374 20.8466 15.9919 21.1409 15.4429C21.4391 14.8866 21.5 14.3307 21.5 13.8213C21.5 12.4258 20.3172 10.7422 18.002 10.7422C16.3418 10.7422 15.441 11.7396 15.0276 12.1973C15.0004 12.2274 14.9754 12.2552 14.9523 12.2802C14.5779 12.6862 14.6036 13.3188 15.0096 13.6932C15.4157 14.0676 16.0483 14.0419 16.4227 13.6359C16.4412 13.6158 16.4596 13.5958 16.4779 13.5759Z" fill="#2B2F36"/>
</svg>
