<svg width="24" height="24" viewBox="0 0 24 24" fill="none" xmlns="http://www.w3.org/2000/svg">
<path d="M14 21.25C14.5523 21.25 15 21.6977 15 22.25C15 22.8023 14.5523 23.25 14 23.25H10C9.44772 23.25 9 22.8023 9 22.25C9 21.6977 9.44772 21.25 10 21.25H14Z" fill="#2B2F36"/>
<path d="M12 0.75C12.8524 0.75 13.6766 0.87038 14.458 1.0918C14.4489 1.29213 14.4094 1.49013 14.335 1.67676C14.2474 1.89618 14.1169 2.09635 13.9521 2.26562C13.7874 2.43472 13.5909 2.56979 13.374 2.66309C13.2006 2.73763 13.0165 2.78346 12.8291 2.80078C12.5571 2.76868 12.2806 2.75 12 2.75C8.16008 2.75 5.04188 5.84187 5 9.67188L5.10645 10.9414C5.27479 12.9605 6.62972 14.6854 8.55176 15.3262C9.1995 15.5421 9.70791 16.0505 9.92383 16.6982L10.4414 18.25H13.5586L14.0762 16.6982C14.2921 16.0505 14.8005 15.5421 15.4482 15.3262C17.3703 14.6854 18.7252 12.9605 18.8936 10.9414L19 9.67188C18.9977 9.4581 18.983 9.24686 18.9619 9.03809C18.9749 8.82197 19.0258 8.60901 19.1143 8.41113C19.2106 8.19569 19.3491 8.00113 19.5205 7.83887C19.6921 7.67657 19.8946 7.54918 20.1152 7.46484C20.2943 7.39644 20.4829 7.35845 20.6738 7.34961C20.8849 8.11398 21 8.9185 21 9.75L20.8867 11.1074C20.652 13.9239 18.7613 16.3299 16.0801 17.2236C16.0298 17.2405 15.9905 17.2798 15.9736 17.3301L15.4189 18.9932C15.1688 19.7435 14.4667 20.2499 13.6758 20.25H10.3242C9.53334 20.2499 8.83116 19.7435 8.58105 18.9932L8.02637 17.3301C8.0095 17.2798 7.97022 17.2405 7.91992 17.2236C5.2387 16.3299 3.34805 13.9239 3.11328 11.1074L3 9.75C3 4.77944 7.02944 0.75 12 0.75Z" fill="#2B2F36"/>
<path d="M17.2041 0.897461C17.3145 0.897461 17.4033 0.986495 17.4092 1.09668C17.5097 3.0362 19.0654 4.59086 21.0049 4.69141C21.115 4.69729 21.2041 4.78712 21.2041 4.89746C21.2038 5.00758 21.1149 5.09666 21.0049 5.10254C19.0654 5.20309 17.5097 6.75775 17.4092 8.69727C17.4033 8.80745 17.3145 8.89746 17.2041 8.89746C17.0939 8.89726 17.0048 8.80735 16.999 8.69727C16.8985 6.75775 15.3438 5.20309 13.4043 5.10254C13.2942 5.09678 13.2044 5.00766 13.2041 4.89746C13.2041 4.78704 13.294 4.69718 13.4043 4.69141C15.3438 4.59086 16.8985 3.0362 16.999 1.09668C17.0048 0.986599 17.0939 0.897659 17.2041 0.897461Z" fill="#2B2F36"/>
</svg>
